<?xml version="1.0" encoding="utf-8"?>
<!-- Generator: Adobe Illustrator 26.3.1, SVG Export Plug-In . SVG Version: 6.00 Build 0)  -->
<svg version="1.1" id="Calque_1" xmlns="http://www.w3.org/2000/svg" xmlns:xlink="http://www.w3.org/1999/xlink" x="0px" y="0px"
	 viewBox="0 0 124.5 146" style="enable-background:new 0 0 124.5 146;" xml:space="preserve">
<style type="text/css">
	.st0{fill:none;}
	.st1{fill:#020202;}
	.st2{fill:#FAE2D7;}
	.st3{fill:#FDFDFD;}
	.st4{fill:#E10714;}
	.st5{fill:#E10814;}
	.st6{fill:#FDFCFC;}
	.st7{fill:#FCFCFC;}
	.st8{fill:#F8E0D5;}
	.st9{fill:#FBFBFB;}
	.st10{fill:#030303;}
</style>
<g>
	<path class="st0" d="M21.3,93.9c0.9,0,1.8,0,2.7,0c0.4,0,0.8,0,1.2,0c-0.4,0-0.8,0-1.2,0C23.1,93.9,22.2,93.9,21.3,93.9z"/>
	<path class="st0" d="M35.7,93.7c0,1.2,0,2.4,0,3.6c0,0.4,0,0.7,0,1.1c0-0.4,0-0.7,0-1.1C35.7,96.1,35.7,94.9,35.7,93.7z"/>
	<path class="st0" d="M12.3,93.5c1,0,2,0,3,0c2,0.1,4,0.2,6,0.4c-2-0.1-4-0.2-6-0.4C14.3,93.5,13.3,93.5,12.3,93.5z"/>
	<path class="st0" d="M16.6,66.9c-0.9,0-1.9,0-2.8,0c-0.9,0.1-1.7,0.3-2.6,0.4c0.9-0.1,1.7-0.3,2.6-0.4
		C14.7,66.9,15.7,66.9,16.6,66.9z"/>
	<path class="st1" d="M124.4,46.3c-0.4-2.3-1-4.5-2.4-6.5c-1.3-1.9-3.1-3-5.5-2.7c-1,0.1-1.9,0.5-2.9,0.8c0,0,0-0.1,0-0.2
		c-0.4-4.5-1.4-8.9-3-13.2c-3.5-9.5-9.8-16.6-19.1-20.8C85.7,1,79.6-0.1,73.2,0C69.7,0.1,66.3,0.5,63,1.4c-4.7,1.2-9.1,3.2-13.3,5.4
		c-4,2.1-7.6,4.5-10.8,7.7c-5.2,5.2-8.2,11.6-9.5,18.8c-0.2,1.3-0.4,2.6-0.6,3.9c-3.9-1-6.4,1-7.8,3.3c-0.7,1.1-1.2,2.2-1.6,3.4
		c-1.7,5.6-0.7,10.6,3.4,14.7c2.2,2.2,4.9,3.5,8.2,2.2c1.4,5.7,3.4,11.2,6.6,16.3c-2.4-0.4-4.7-0.3-6.8,0.6c0-0.2-0.1-0.3-0.1-0.4
		c-0.3-1.2-0.5-2.4-0.9-3.6c-1.7-4.5-5.2-7.3-9.7-8.8c-3.1-1-6.2-0.8-9.4-0.2c-1.7,0.4-3.3,0.9-5,1.3c-0.6,0.2-0.9,0.6-0.9,1.2
		C4.7,68,5,68.4,5.5,68.6c1,0.5,1.9,1.3,2.5,2.3c0.7,1.2,1.3,2.4,1.8,3.6c1,2.3,1.8,4.7,3.9,6.5c-2.3,1.1-4.4,2.6-6.4,4.2
		c-2.7,2.2-4.9,4.7-6.3,8c-0.8,1.9-1.1,3.8-1,5.9c0,0.7,0.3,1.2,1,1.4c0.6,0.2,1-0.2,1.4-0.6c1.3-1.4,2.9-2.4,4.7-3
		c2.1-0.7,4.3-1,6.5-1c3.6,0,7.1,0.3,10.7,0.2c3.3-0.1,6.6-0.6,9.3-3.1c0,2-0.1,3.9,0,5.7c0.4,4.6,1.6,8.9,3.2,13.2
		c2.1,5.6,5.4,10.3,10.4,13.6c3.7,2.5,7.8,4.1,12,5.4c5.3,1.6,10.7,2.5,16.1,3.6c4.4,0.9,8.8,1.9,13.1,3.5c3.4,1.3,6.7,2.8,9.5,5.2
		c1.1,0.9,2.1,1.8,3.4,2.3c0.2,0,0.4,0,0.6,0c0.9-0.2,1.6-0.7,2.3-1.3c3.1-2.9,5.6-6.2,7.4-10c3-6.2,4-12.7,3-19.5
		c-0.4-2.7-1-5.4-1.6-8c-0.9-4.2-2.2-8.3-4.5-12c-1.9-3-3.9-5.9-6.6-8.3c-0.9-0.8-1.9-1.5-2.9-2.3c7.5-6.2,12.3-14.1,13.9-23.8
		c1.1,0.4,2.3,0.5,3.4,0.2c3.2-0.7,5.6-2.7,7.1-5.6C124.6,52.2,124.9,49.3,124.4,46.3z M30,58.5c-0.7,0.5-1.5,0.6-2.4,0.4
		c-1.9-0.5-3.2-1.8-4.4-3.3c-2.9-3.8-3.1-9.5-0.6-13.6c0.8-1.3,1.8-2.4,3.4-2.6c0.7-0.1,1.5,0.1,2.2,0.1c0.1,0,0.3,0.3,0.3,0.4
		c-0.2,3.6,0,7.1,0.4,10.7c0.1,0.7,0.2,1.4,0.3,2.3c-2.3-1.9-4.1-4.1-4.5-7.1c-0.1-0.6-0.4-1-0.9-1.1c-0.9-0.3-1.6,0.3-1.4,1.3
		c0.6,4,2.8,6.9,6,9.2c0.1,0.1,0.1,0.1,0.2,0.2c1.3,0.4,1.5,1.5,1.6,2.6C30.2,58.2,30.1,58.4,30,58.5z M13.1,76.3
		c-0.4-1-0.8-2-1.2-2.9c-0.4-1-0.9-1.9-1.4-2.8c-0.5-0.9-1.2-1.7-1.9-2.7c0.9-0.1,1.7-0.3,2.6-0.4c0.9-0.1,1.7-0.3,2.6-0.4
		c0.9,0,1.9,0,2.8,0c1.4,0.2,2.8,0.4,4.1,1c3.9,1.8,6.4,4.8,7.5,8.9c0.2,0.8,0.2,1.7,0.3,2.7c-0.6-0.1-1-0.2-1.4-0.3
		c-1.7-0.4-3.4-0.6-5.2-0.4c-1.7,0.2-3.3,0.6-5,0.9c-0.2,0-0.5,0-0.7-0.1C14.6,79,13.8,77.7,13.1,76.3z M29.1,93
		c-0.8,0.3-1.6,0.5-2.5,0.6c-0.4,0.1-0.9,0.1-1.3,0.1c-0.4,0-0.8,0-1.2,0c-0.9,0-1.8,0-2.7,0c-2-0.1-4-0.2-6-0.4c-1,0-2,0-3,0
		c-2.4,0.3-5.5,0.3-9.7,2.9c0.2-1.3,0.7-2.5,1.3-3.7c1.4-2.6,3.5-4.6,5.8-6.4c2.8-2.2,5.9-3.9,9.4-4.7c1.7-0.4,3.4-0.5,5.1-0.4
		c1,0.1,2,0.3,2.9,0.4c-0.5,4.2,1.1,7.3,4.4,9.7C30.9,92.2,30,92.7,29.1,93z M29.6,84.5c-0.5-3.2,1.6-4.7,4.1-5.2
		c3.5-0.7,6.5,1.8,7.6,3.7c1,1.9,0.6,4-1.1,5.5c-1.2,1.1-2.6,1.6-4.2,1.6C32.9,90.2,30.2,87.7,29.6,84.5z M37.7,107.8
		c-0.4-1.4-0.8-2.8-1.1-4.2c-0.1-0.5-0.2-1-0.3-1.5c-0.1-0.3-0.1-0.6-0.2-0.9c-0.1-0.4-0.1-0.9-0.2-1.3c0-0.1,0-0.1,0-0.2
		c0-0.4-0.1-0.8-0.1-1.2c0-0.4,0-0.7,0-1.1c0-1.2,0-2.4,0-3.6c0-0.3,0-0.6,0-1c3.6-0.2,6.4-1.6,8-5.1c2.1,5.9,3.9,11.8,7.7,17
		c-1.5,0.6-2.9,1.3-4.4,1.8c-2.2,0.8-4.4,1.4-6.8,1.6c-0.6,0.1-1.2,0.1-1.8,0.2C38,108.3,37.8,108.2,37.7,107.8z M83.8,101.6
		c-3.6-1.2-7.4-1.7-10.8-3.3c-1.9-0.9-3.6-2.1-4.9-3.7c-0.1-0.2-0.3-0.4-0.5-0.6c7.4,0.1,14.5-1.2,21.2-4
		C88.3,92.3,85.2,99.3,83.8,101.6z M85,104.5c5.7,1.9,10.8,4.9,15.8,8.4c-1.9,2.7-3.7,5.4-5.6,8.1c-5.5-3-11.3-5-17.4-6.4
		C80.5,111.3,82.9,108.1,85,104.5z M68.1,98c2.4,2,5.3,3.2,8.2,4c2,0.6,4,1.1,5.9,1.6c0.1,0,0.2,0.1,0.4,0.1c-1.8,3-3.7,5.8-5.9,8.4
		c-0.4,0.5-0.8,1-1.3,1.5c-0.1,0.1-0.4,0.2-0.6,0.2c-4.7-1-9.4-2.1-13.7-4.3c-1.9-0.9-3.7-2-5.3-3.4c-0.3-0.3-0.6-0.5-1-0.7
		c4.4-2.6,8-5.6,11.4-9C66.9,96.9,67.4,97.5,68.1,98z M53.5,103.3c-3.7-4.9-5.6-10.6-7.5-16.4c5.7,4.3,12.2,6.4,19.2,7
		C63.9,95.9,56,102.2,53.5,103.3z M58,127.6c-0.2,0.1-0.5,0.2-0.7,0.1c-4.2-1.5-8.1-3.4-11.5-6.3c-3-2.6-5-5.9-6.6-9.5
		c-0.2-0.4-0.3-0.8-0.5-1.2c5.1-0.4,9.7-1.9,14.2-4.2c1.7,1.8,3.5,3.3,5.7,4.5c3.3,1.8,6.7,2.9,10.3,3.8c1.4,0.4,2.9,0.7,4.5,1.1
		c-1.8,1.7-3.5,3.3-5.3,4.9C65.1,123.5,61.7,125.8,58,127.6z M81.9,133.6c-3.2-0.7-6.4-1.4-9.6-2.1c-2.2-0.5-4.4-0.9-6.5-1.4
		c-1.6-0.4-3.2-0.8-5-1.2c1.4-0.9,2.6-1.6,3.9-2.4c4-2.7,7.6-5.9,10.9-9.5c0.3-0.4,0.6-0.4,1.1-0.3c4.6,1.2,9.1,2.5,13.5,4.5
		c1.1,0.5,2.3,1.1,3.5,1.7c-0.9,1.1-1.8,2.1-2.7,3.1c-2.4,2.8-5.1,5.3-8.1,7.4C82.6,133.6,82.3,133.7,81.9,133.6z M107.8,135.8
		c-1.3,2.2-2.9,4.1-4.7,5.9c-0.1,0.1-0.2,0.2-0.3,0.2c-1.2,1-1.6,1-2.8,0c-3.1-2.6-6.7-4.5-10.5-5.9c-1.3-0.5-2.7-1-4-1.4
		c1.8-1.7,3.6-3.3,5.3-5c1.7-1.7,3.2-3.6,4.9-5.5c1,0.6,2,1.3,3,2c2.3,1.6,4.5,3.2,6.4,5.2c1.1,1.2,2,2.5,2.7,3.9
		C107.9,135.4,107.9,135.7,107.8,135.8z M112.2,123.1c-0.4,1.6-0.5,3.2-1,4.8c-0.5,1.7-1.1,3.3-1.8,4.9c-3-4.9-7.5-7.9-12.2-10.7
		c1.8-2.6,3.6-5.3,5.5-7.9c1.2,0.9,2.4,1.8,3.6,2.8c1.7,1.4,3.4,2.9,5.1,4.3C112,121.8,112.4,122.3,112.2,123.1z M109.1,102.5
		c1.6,5.3,2.8,10.7,3.2,16.4c-2.8-2.3-5.6-4.5-8.3-6.7C105.7,108.9,107.4,105.7,109.1,102.5z M102,110.7c-4.9-3.4-10.1-6.4-15.7-8.3
		c1.7-4,3.4-8,5.1-12c5.3,3.1,10.7,6.3,16.1,9.5C105.9,103.6,104.1,107.2,102,110.7z M106.5,96.5c-4.7-2.8-9.3-5.5-14-8.3
		c1.4-0.9,2.7-1.7,4.1-2.5C100.3,87.5,105.5,93.2,106.5,96.5z M110.7,56.6c-0.4,2.9-0.8,5.8-1.7,8.5c-1.7,5.2-4.4,9.7-8.1,13.7
		c-5.6,6-12.5,9.7-20.5,11.5c-4,0.9-8,1.3-12.1,1.3c-6.7-0.1-13.1-1.5-18.8-5.2C44.7,83.3,41.1,79,38.4,74c-2.7-5-4.5-10.4-5.8-16
		c-1.2-5.2-1.9-10.5-1.8-15.9c0.1-6,1.1-11.8,3.7-17.3c2.6-5.4,6.5-9.7,11.5-13C52.7,7.3,60,4.3,68,3C78.4,1.2,88,3.4,96.7,9.5
		c5.1,3.6,8.6,8.6,11.1,14.3c1.9,4.5,3,9.1,3.4,14c0.2,2.2,0.3,4.4,0.4,6.6C111.5,48.5,111.2,52.6,110.7,56.6z M120.9,54
		c-1.2,2.1-2.9,3.5-5.2,4.1c-0.8,0.2-1.6,0.1-2.4-0.2c-0.3-0.1-0.3-0.3-0.3-0.6c0-0.9,0.4-1.5,1.2-2c3-2,5.1-4.7,5.9-8.3
		c0.1-0.4,0.2-0.8,0.2-1.2c0.1-0.7-0.2-1.1-0.8-1.2c-0.7-0.1-1.3,0.2-1.5,0.9c-0.2,0.6-0.2,1.3-0.5,1.9c-0.7,2.2-2.1,3.9-3.9,5.3
		c0.1-3.2,0.2-6.3,0.3-9.5c0-0.5,0-1-0.1-1.5c-0.1-0.6,0.1-0.9,0.5-1.3c1.6-1.5,4.2-1.2,5.6,0.7c1.1,1.4,1.6,3.1,2,4.8
		C122.5,48.8,122.4,51.5,120.9,54z"/>
	<path class="st2" d="M107.8,23.9c-2.5-5.7-6-10.7-11.1-14.3C88,3.4,78.4,1.2,68,3c-8,1.3-15.3,4.4-22,8.9c-4.9,3.3-8.9,7.6-11.5,13
		c-2.6,5.5-3.6,11.3-3.7,17.3c-0.1,5.4,0.5,10.7,1.8,15.9c1.3,5.5,3,10.9,5.8,16c2.7,5,6.3,9.3,11.1,12.4c5.7,3.7,12.1,5.1,18.8,5.2
		c4.1,0.1,8.1-0.4,12.1-1.3c8-1.8,14.9-5.5,20.5-11.5c3.7-4,6.4-8.5,8.1-13.7c0.9-2.8,1.3-5.6,1.7-8.5c0.5-4.1,0.9-8.1,1-12.2
		c-0.1-2.2-0.2-4.4-0.4-6.6C110.8,33,109.7,28.3,107.8,23.9z M62.8,50.8c0.1,0,0.3,0,0.4-0.1c0.1,0,0.1-0.1,0.2-0.1
		c0.2-1.4,0.3-2.9,0.5-4.3c0.4-2.6,1.3-4.9,3.2-6.8c3-3.1,7.2-3.2,10.5-0.5c2.2,1.8,3.2,4.2,3.7,6.9c0.2,1.2,0.2,2.4,0.3,3.6
		c1.1,0.3,2.1,0.9,3,1.7c1.2,1.1,1.9,2.4,1.4,4c-0.5,1.6-1.8,2.4-3.4,2.7c-0.6,0.1-1.1,0.1-1.7,0.2c-0.7,0-1.2-0.4-1.2-1
		c0-0.7,0.4-1,1.1-1.1c0.7-0.1,1.5-0.2,2.2-0.4c1.2-0.4,1.3-1.3,0.5-2.3c-0.8-0.9-1.8-1.5-3-1.7c-0.9-0.2-1.2-0.5-1.2-1.4
		c0.1-2.1,0-4.2-0.8-6.1c-1-2.4-2.6-4.1-5.2-4.6c-2-0.4-3.5,0.5-4.8,1.8c-1.4,1.4-2.1,3.3-2.4,5.2c-0.2,1.7-0.3,3.4-0.5,5.1
		c-0.1,0.8-0.3,1.1-1.1,1.2c-0.8,0.1-1.6,0.2-2.3,0.5c-0.5,0.1-0.9,0.5-1.3,0.8c-0.8,0.8-0.6,2.1,0.5,2.6c0.7,0.4,0.9,0.9,0.7,1.5
		c-0.3,0.6-0.9,0.8-1.6,0.5c-2.5-1.1-2.9-4.4-0.9-6.3C60.5,51.4,61.6,51,62.8,50.8z M77.6,56.2c-0.5,0.4-1.2,0.4-1.6-0.1
		c-0.4-0.4-0.4-1,0-1.4c1.4-1.3,3-1.9,4.9-2.1c0.6,0,1,0.4,1,1c0,0.6-0.4,1.1-1,1.2C79.6,54.9,78.5,55.4,77.6,56.2z M68.6,57.4
		c-0.4,0.5-1.1,0.6-1.5,0.2c-1.1-0.9-2.4-1.6-3.8-1.9c-0.5-0.1-0.8-0.6-0.7-1.1c0.1-0.6,0.5-1,1.2-1c0.2,0.1,0.6,0.2,1,0.3
		c1.4,0.4,2.6,1.2,3.7,2.1C68.9,56.4,69,56.9,68.6,57.4z M38.8,45.5c-0.1-0.5-0.1-0.9,0.3-1.3c0.4-0.3,0.8-0.5,1.3-0.2
		c0.3,0.1,0.6,0.4,0.6,0.6c0.7,2.7,2.7,3.9,5.2,4.3c2.7,0.5,5.3,0.2,7.6-1.3c1.5-1,2.5-2.3,3-4c0.2-0.8,0.8-1.2,1.5-1
		c0.7,0.2,1.1,0.8,0.8,1.6c-1.1,3.8-3.8,5.9-7.6,6.9c-1,0.3-2.1,0.3-3.1,0.5c-2.3-0.1-4.4-0.5-6.3-1.7
		C40.4,48.9,39.2,47.4,38.8,45.5z M103.7,50.7c-1.4,1.9-2.8,3.8-4.4,5.5c-6.2,6.7-13.8,11.1-22.7,13.3c-3,0.7-7.1,1.3-10.2,1.2
		c-5.2,0-9.6-0.5-13.8-2.1c-3.5-1.3-6.5-3.2-8.7-6.3c-0.9-1.2-1.5-2.6-1.9-4c-0.2-0.6,0.1-1.2,0.7-1.4c0.7-0.2,1.3,0,1.5,0.6
		c1.5,4.7,5,7.1,9.3,8.7c2.5,0.9,5.1,1.3,7.7,1.6c3,0.3,5.9,0.4,8.9,0.2c4.2-0.3,8.2-1.3,12.1-2.9c8-3.3,14.4-8.5,19.3-15.6
		c0.4-0.6,1-0.8,1.6-0.6C104,49.3,104.2,50,103.7,50.7z M104.4,40.4c-0.7,2-1.8,3.7-3.5,5c-1.9,1.4-4.1,2.1-7,2.1
		c-3.7-0.2-6.9-2-8.7-6.1c-0.4-0.8-0.2-1.3,0.4-1.6c0.7-0.3,1.5,0,1.8,0.7c1.4,3.1,3.8,4.6,7.2,4.6c3.5,0,6.5-2.2,7.6-5.4
		c0.3-0.8,0.8-1.2,1.5-1C104.4,38.9,104.7,39.5,104.4,40.4z"/>
	<path class="st3" d="M73.4,115.9c-1.7-0.4-3.1-0.8-4.5-1.1c-3.6-0.9-7.1-2.1-10.3-3.8c-2.1-1.2-4-2.7-5.7-4.5
		c-4.5,2.3-9.1,3.8-14.2,4.2c0.2,0.5,0.3,0.8,0.5,1.2c1.5,3.6,3.5,6.9,6.6,9.5c3.4,2.9,7.3,4.9,11.5,6.3c0.2,0.1,0.5,0,0.7-0.1
		c3.7-1.8,7.1-4.1,10.2-6.9C69.9,119.2,71.6,117.6,73.4,115.9z"/>
	<path class="st4" d="M91,126c0.9-1,1.7-2,2.7-3.1c-1.2-0.6-2.3-1.2-3.5-1.7c-4.3-2-8.9-3.3-13.5-4.5c-0.5-0.1-0.8,0-1.1,0.3
		c-3.3,3.6-6.9,6.8-10.9,9.5c-1.2,0.8-2.5,1.6-3.9,2.4c1.7,0.4,3.4,0.9,5,1.2c2.2,0.5,4.3,0.9,6.5,1.4c3.2,0.7,6.4,1.3,9.6,2.1
		c0.4,0.1,0.7,0,1-0.2C85.9,131.2,88.5,128.7,91,126z"/>
	<path class="st4" d="M54.9,105.4c0.4,0.3,0.7,0.5,1,0.7c1.6,1.4,3.4,2.5,5.3,3.4c4.3,2.1,9,3.2,13.7,4.3c0.2,0,0.4-0.1,0.6-0.2
		c0.5-0.5,0.9-1,1.3-1.5c2.2-2.6,4.2-5.4,5.9-8.4c-0.2-0.1-0.3-0.1-0.4-0.1c-2-0.5-4-1-5.9-1.6c-3-0.9-5.8-2-8.2-4
		c-0.6-0.5-1.2-1.1-1.8-1.7C62.9,99.7,59.2,102.8,54.9,105.4z"/>
	<path class="st4" d="M27.2,81.7c-1-0.1-2-0.4-2.9-0.4c-1.7-0.1-3.4,0-5.1,0.4c-3.5,0.8-6.6,2.5-9.4,4.7c-2.3,1.8-4.4,3.8-5.8,6.4
		c-0.6,1.1-1.1,2.3-1.3,3.7c4.2-2.6,7.3-2.6,9.7-2.9c1,0,2,0,3,0c2,0.1,4,0.2,6,0.4c0.9,0,1.8,0,2.7,0c0.4,0,0.8,0,1.2,0
		c0.4,0,0.9-0.1,1.3-0.1c0.8-0.1,1.7-0.3,2.5-0.6c1-0.3,1.8-0.8,2.4-1.7C28.2,89,26.7,85.8,27.2,81.7z"/>
	<path class="st5" d="M86.3,102.4c5.6,1.9,10.7,4.9,15.7,8.3c2.1-3.5,4-7.1,5.5-10.8c-5.4-3.2-10.8-6.4-16.1-9.5
		C89.7,94.4,88,98.4,86.3,102.4z"/>
	<path class="st3" d="M105.2,131.3c-1.9-2.1-4.1-3.7-6.4-5.2c-1-0.7-2.1-1.4-3-2c-1.7,1.9-3.2,3.7-4.9,5.5c-1.7,1.7-3.5,3.3-5.3,5
		c1.3,0.5,2.7,0.9,4,1.4c3.8,1.4,7.4,3.3,10.5,5.9c1.2,1,1.6,1,2.8,0c0.1-0.1,0.2-0.1,0.3-0.2c1.8-1.8,3.4-3.7,4.7-5.9
		c0.1-0.1,0.1-0.4,0-0.6C107.1,133.8,106.2,132.5,105.2,131.3z"/>
	<path class="st3" d="M95.2,121c1.9-2.7,3.7-5.4,5.6-8.1c-5-3.5-10.1-6.5-15.8-8.4c-2.1,3.6-4.5,6.9-7.2,10.1
		C83.9,115.9,89.7,117.9,95.2,121z"/>
	<path class="st4" d="M47,106.4c1.5-0.5,2.9-1.2,4.4-1.8c-3.7-5.2-5.6-11.1-7.7-17c-1.6,3.4-4.4,4.9-8,5.1c0,0.4,0,0.7,0,1
		c0,1.2,0,2.4,0,3.6c0,0.4,0,0.7,0,1.1c0,0.4,0.1,0.8,0.1,1.2c0,0.1,0,0.1,0,0.2c0.1,0.4,0.1,0.9,0.2,1.3c0.1,0.3,0.1,0.6,0.2,0.9
		c0.1,0.5,0.2,1,0.3,1.5c0.3,1.4,0.7,2.8,1.1,4.2c0.1,0.4,0.3,0.6,0.7,0.5c0.6-0.1,1.2-0.2,1.8-0.2C42.6,107.8,44.8,107.2,47,106.4z
		"/>
	<path class="st4" d="M16.1,79.7c0.2,0.1,0.5,0.1,0.7,0.1c1.7-0.3,3.3-0.7,5-0.9c1.7-0.2,3.5,0,5.2,0.4c0.4,0.1,0.9,0.2,1.4,0.3
		c-0.1-1,0-1.9-0.3-2.7c-1.1-4.1-3.6-7.1-7.5-8.9c-1.3-0.6-2.7-0.8-4.1-1c-0.9,0-1.9,0-2.8,0c-0.9,0.1-1.7,0.3-2.6,0.4
		c-0.9,0.1-1.7,0.3-2.6,0.4c0.7,1,1.3,1.8,1.9,2.7c0.5,0.9,1,1.9,1.4,2.8c0.4,1,0.8,2,1.2,2.9C13.8,77.7,14.6,79,16.1,79.7z"/>
	<path class="st5" d="M111.4,121.3c-1.7-1.4-3.4-2.9-5.1-4.3c-1.2-1-2.4-1.9-3.6-2.8c-1.9,2.7-3.7,5.3-5.5,7.9
		c4.6,2.9,9.2,5.9,12.2,10.7c0.7-1.6,1.3-3.3,1.8-4.9c0.4-1.6,0.6-3.2,1-4.8C112.4,122.3,112,121.8,111.4,121.3z"/>
	<path class="st6" d="M53.5,103.3c2.4-1.1,10.3-7.4,11.7-9.4c-7-0.6-13.5-2.7-19.2-7C47.9,92.7,49.9,98.4,53.5,103.3z"/>
	<path class="st7" d="M67.6,94c0.2,0.3,0.3,0.5,0.5,0.6c1.3,1.6,3,2.8,4.9,3.7c3.4,1.6,7.2,2.1,10.8,3.3c1.4-2.3,4.5-9.4,5-11.7
		C82,92.8,75,94.1,67.6,94z"/>
	<path class="st3" d="M40.2,88.6c1.7-1.6,2.1-3.7,1.1-5.5c-1.1-2-4.1-4.4-7.6-3.7c-2.5,0.5-4.6,2-4.1,5.2c0.5,3.2,3.3,5.7,6.4,5.7
		C37.7,90.2,39.1,89.7,40.2,88.6z"/>
	<path class="st8" d="M120,41.2c-1.4-1.9-4-2.2-5.6-0.7c-0.4,0.4-0.6,0.7-0.5,1.3c0.1,0.5,0.1,1,0.1,1.5c-0.1,3.1-0.2,6.3-0.3,9.5
		c1.8-1.4,3.2-3.1,3.9-5.3c0.2-0.6,0.3-1.3,0.5-1.9c0.2-0.7,0.8-1,1.5-0.9c0.6,0.1,0.8,0.5,0.8,1.2c0,0.4-0.1,0.8-0.2,1.2
		c-0.9,3.5-2.9,6.3-5.9,8.3c-0.8,0.5-1.2,1.1-1.2,2c0,0.3,0.1,0.4,0.3,0.6c0.8,0.4,1.6,0.4,2.4,0.2c2.4-0.6,4.1-2,5.2-4.1
		c1.5-2.5,1.6-5.3,1-8.1C121.6,44.2,121,42.6,120,41.2z"/>
	<path class="st8" d="M28.6,55.4c-0.1,0-0.2-0.1-0.2-0.2C25.2,53,23,50,22.4,46c-0.2-1,0.5-1.6,1.4-1.3c0.6,0.2,0.9,0.5,0.9,1.1
		c0.4,3,2.1,5.2,4.5,7.1c-0.1-0.9-0.2-1.6-0.3-2.3c-0.4-3.6-0.6-7.1-0.4-10.7c0-0.1-0.2-0.4-0.3-0.4c-0.7-0.1-1.5-0.2-2.2-0.1
		c-1.6,0.2-2.6,1.3-3.4,2.6c-2.5,4-2.2,9.8,0.6,13.6c1.1,1.5,2.5,2.8,4.4,3.3c0.8,0.2,1.7,0.2,2.4-0.4c0.1-0.1,0.3-0.3,0.2-0.5
		C30.1,57,29.9,55.9,28.6,55.4z"/>
	<path class="st7" d="M112.4,118.9c-0.5-5.7-1.6-11.1-3.2-16.4c-1.7,3.2-3.4,6.4-5.1,9.7C106.8,114.4,109.5,116.6,112.4,118.9z"/>
	<path class="st9" d="M92.5,88.2c4.7,2.8,9.3,5.5,14,8.3c-0.9-3.3-6.2-9-9.9-10.8C95.2,86.5,93.9,87.4,92.5,88.2z"/>
	<path class="st1" d="M103.2,49c-0.6-0.3-1.2-0.1-1.6,0.6c-4.9,7.2-11.3,12.4-19.3,15.6c-3.9,1.6-7.9,2.6-12.1,2.9
		c-3,0.2-6,0.2-8.9-0.2c-2.6-0.3-5.2-0.8-7.7-1.6c-4.3-1.6-7.8-4-9.3-8.7c-0.2-0.6-0.9-0.9-1.5-0.6c-0.6,0.2-0.9,0.7-0.7,1.4
		c0.4,1.4,1.1,2.8,1.9,4c2.2,3.1,5.2,5,8.7,6.3c4.2,1.6,8.6,2.1,13.8,2.1c3.1,0,7.2-0.5,10.2-1.2c8.9-2.1,16.5-6.6,22.7-13.3
		c1.6-1.7,2.9-3.6,4.4-5.5C104.2,50,104,49.3,103.2,49z"/>
	<path class="st1" d="M60.4,58.6c0.7,0.3,1.3,0.1,1.6-0.5c0.3-0.6,0-1.2-0.7-1.5c-1-0.5-1.3-1.8-0.5-2.6c0.4-0.3,0.8-0.7,1.3-0.8
		c0.8-0.2,1.5-0.3,2.3-0.5c0.8-0.1,1.1-0.4,1.1-1.2c0.1-1.7,0.2-3.4,0.5-5.1c0.3-2,1-3.8,2.4-5.2c1.3-1.3,2.8-2.2,4.8-1.8
		c2.6,0.5,4.2,2.2,5.2,4.6c0.8,2,0.9,4,0.8,6.1c0,0.9,0.2,1.2,1.2,1.4c1.2,0.2,2.2,0.7,3,1.7c0.8,0.9,0.6,1.8-0.5,2.3
		c-0.7,0.3-1.5,0.3-2.2,0.4c-0.7,0.1-1.1,0.5-1.1,1.1c0,0.6,0.5,1.1,1.2,1c0.6,0,1.1-0.1,1.7-0.2c1.6-0.3,2.9-1,3.4-2.7
		c0.5-1.6-0.2-2.9-1.4-4c-0.9-0.8-1.9-1.3-3-1.7c-0.1-1.2-0.1-2.4-0.3-3.6c-0.4-2.7-1.5-5.1-3.7-6.9c-3.3-2.8-7.5-2.6-10.5,0.5
		c-1.9,1.9-2.8,4.2-3.2,6.8c-0.2,1.4-0.3,2.8-0.5,4.3c0,0-0.1,0-0.2,0.1c-0.1,0-0.3,0-0.4,0.1c-1.2,0.2-2.4,0.6-3.3,1.5
		C57.5,54.2,58,57.5,60.4,58.6z"/>
	<path class="st1" d="M51.5,51.1c3.7-0.9,6.4-3.1,7.6-6.9c0.3-0.8-0.1-1.4-0.8-1.6c-0.7-0.2-1.3,0.1-1.5,1c-0.5,1.7-1.5,3-3,4
		c-2.3,1.5-4.9,1.8-7.6,1.3c-2.5-0.4-4.5-1.6-5.2-4.3c-0.1-0.3-0.4-0.5-0.6-0.6c-0.4-0.2-0.9-0.1-1.3,0.2c-0.4,0.3-0.5,0.8-0.3,1.3
		c0.5,1.9,1.6,3.4,3.3,4.4c1.9,1.2,4.1,1.6,6.3,1.7C49.4,51.5,50.5,51.4,51.5,51.1z"/>
	<path class="st1" d="M103.6,38.7c-0.7-0.2-1.2,0.1-1.5,1c-1.1,3.3-4.1,5.4-7.6,5.4c-3.4,0-5.8-1.5-7.2-4.6
		c-0.3-0.8-1.1-1.1-1.8-0.7c-0.6,0.3-0.8,0.8-0.4,1.6c1.8,4,5,5.9,8.7,6.1c2.9,0,5.1-0.7,7-2.1c1.7-1.3,2.9-3,3.5-5
		C104.7,39.5,104.4,38.9,103.6,38.7z"/>
	<path class="st10" d="M64.7,53.9c-0.4-0.1-0.7-0.2-1-0.3c-0.7,0-1.1,0.4-1.2,1c-0.1,0.5,0.2,1,0.7,1.1c1.4,0.3,2.7,1,3.8,1.9
		c0.5,0.4,1.2,0.3,1.5-0.2c0.4-0.5,0.3-1-0.2-1.4C67.3,55,66.1,54.3,64.7,53.9z"/>
	<path class="st10" d="M81.8,53.7c0-0.6-0.4-1.1-1-1c-1.8,0.1-3.5,0.8-4.9,2.1c-0.4,0.4-0.4,0.9,0,1.4c0.4,0.5,1.1,0.5,1.6,0.1
		c0.9-0.8,2-1.2,3.2-1.4C81.4,54.7,81.8,54.3,81.8,53.7z"/>
</g>
</svg>
