<?xml version="1.0" encoding="utf-8"?>
<!-- Generator: Adobe Illustrator 26.3.1, SVG Export Plug-In . SVG Version: 6.00 Build 0)  -->
<svg version="1.1" id="Calque_1" xmlns="http://www.w3.org/2000/svg" xmlns:xlink="http://www.w3.org/1999/xlink" x="0px" y="0px"
	 viewBox="0 0 90 69" style="enable-background:new 0 0 90 69;" xml:space="preserve">
<style type="text/css">
	.st0{fill:none;}
	.st1{fill:#FFFFFF;}
	.st2{fill:#E30512;}
	.st3{fill:none;stroke:#E30512;stroke-width:0;stroke-linecap:round;stroke-linejoin:round;}
	.st4{fill:#1C1C1C;}
</style>
<g>
	<path class="st0" d="M30.3,24.8c-0.8-0.4-2-0.1-2.1,0.9C28.3,24.7,29.5,24.4,30.3,24.8z"/>
	<path class="st0" d="M27.1,37.5c-0.5-2.5-2-5.1-4.7-4.9C25.1,32.5,26.6,35,27.1,37.5c0.3,1.5,0.1,2.9-0.3,4.1
		C27.2,40.4,27.4,39.1,27.1,37.5z"/>
	<path class="st0" d="M31.4,56.6c0.2,0.8,0.8,1.1,1.5,1.1C32.2,57.7,31.6,57.4,31.4,56.6z"/>
	<path class="st0" d="M23.4,58.8c0.3-0.3,0.5-0.8,0.3-1.3c-0.1-0.3-0.1-0.7-0.2-1c0.1,0.3,0.1,0.7,0.2,1
		C23.8,58,23.7,58.4,23.4,58.8z"/>
	<path class="st0" d="M21.5,42.2C21.5,42.1,21.5,42.1,21.5,42.2C21.5,42.1,21.5,42.1,21.5,42.2c0,0.4,0.1,0.7,0.1,1.1c0,0,0,0,0,0
		C21.5,42.9,21.5,42.5,21.5,42.2z"/>
	<path class="st0" d="M21.8,46.3c0.1,1.1,0.3,2.2,0.4,3.3C22.1,48.5,22,47.4,21.8,46.3c0.1,0,0.1,0,0.2-0.1c0.4-0.2,0.7-0.4,1-0.6
		c-0.3,0.2-0.7,0.4-1,0.6C22,46.3,21.9,46.3,21.8,46.3z"/>
	<path class="st0" d="M31.1,25.9c0-0.1,0-0.1,0-0.2C31.1,25.7,31.1,25.8,31.1,25.9c1.7,10.1,2.2,20.3,3.1,30.4
		c0,0.4-0.1,0.7-0.3,0.9c0.2-0.2,0.3-0.5,0.3-0.9C33.3,46.1,32.8,35.9,31.1,25.9z"/>
	<path class="st0" d="M24,36.8c0.1,0,0.1,0.1,0.1,0.1C24.1,36.9,24.1,36.9,24,36.8c-1.3-1.2-2-0.9-2.4,0C22,35.9,22.7,35.6,24,36.8z
		"/>
	<path class="st0" d="M53.5,60.3c1.3-2.1,2.6-4.2,3.7-6.4C56.1,56.1,54.8,58.2,53.5,60.3C53.5,60.3,53.5,60.3,53.5,60.3z"/>
	<path class="st0" d="M48.3,38c-0.1-4.4-0.2-8.7-0.2-13.1c0-2.5,0-4.9,0-7.4c0-0.7-0.7-1.5-1.4-1.4c-0.8,0-1.4,0.6-1.4,1.4
		c0,4.1,0,8.2,0.1,12.3c-0.1-4.1-0.1-8.2-0.1-12.3c0-0.8,0.7-1.4,1.4-1.4s1.4,0.7,1.4,1.4c0,2.5,0,4.9,0,7.4
		C48.2,29.3,48.3,33.6,48.3,38c0.1,4.4,0.2,8.7,0.4,13.1c0,0.2,0,0.4-0.1,0.6c0.1-0.2,0.1-0.4,0.1-0.6C48.6,46.7,48.4,42.4,48.3,38z
		"/>
	<path class="st0" d="M40,54.8c-0.1-0.2-0.2-0.4-0.2-0.6C39.8,54.4,39.8,54.6,40,54.8z"/>
	<path class="st0" d="M56.8,39.5c-0.1-0.3-0.2-0.7-0.2-1C56.6,38.8,56.7,39.1,56.8,39.5z"/>
	<path class="st0" d="M55.9,36c-0.2-0.7-0.4-1.3-0.6-2C55.5,34.7,55.7,35.3,55.9,36z"/>
	<path class="st0" d="M44.7,45.6c-0.4-1.7-0.9-3.3-1.4-4.9C43.8,42.3,44.3,44,44.7,45.6c0.5,1.7,0.8,3.5,1.1,5.3c0,0.1,0,0.1,0,0.2
		c0-0.1,0-0.1,0-0.2C45.6,49.1,45.2,47.3,44.7,45.6z"/>
	<path class="st0" d="M40.2,24.7c0.3,0,0.6,0,0.9,0.2c0.3,0.2,0.6,0.5,0.7,0.9c0.4,1.9,0.9,3.7,1.4,5.5c0.7,2.4,1.5,4.7,2.3,7
		c0,0,0,0,0,0c-0.8-2.3-1.6-4.7-2.3-7c-0.5-1.8-1-3.7-1.4-5.5c-0.1-0.3-0.4-0.7-0.7-0.9C40.9,24.7,40.6,24.6,40.2,24.7
		c-0.5,0.1-1,0.5-1.2,1C39.2,25.1,39.7,24.7,40.2,24.7z"/>
	<path class="st0" d="M42.3,43.1c0.1,3.6,0.2,7.3,0.3,10.9c0,0.4-0.1,0.7-0.4,0.9c0.2-0.2,0.4-0.6,0.4-0.9
		C42.4,50.4,42.4,46.8,42.3,43.1c0-2-0.1-4-0.1-6c0,0,0,0,0,0C42.2,39.1,42.2,41.1,42.3,43.1z"/>
	<path class="st0" d="M21.1,58.6c0.2,0.6,0.8,0.8,1.3,0.7C21.9,59.4,21.4,59.2,21.1,58.6z"/>
	<path class="st0" d="M82.7,49.8c1.6-2.8,2.9-5.9,4-8.9c0.7-1.9,1.5-3.5,2-5.1c-0.6,1.6-1.3,3.1-2,5.1C85.6,43.9,84.3,47,82.7,49.8z
		"/>
	<path class="st0" d="M83.7,46.2c0,0,0,0.1-0.1,0.1C83.7,46.3,83.7,46.3,83.7,46.2z"/>
	<path class="st0" d="M2.3,61.8c3.4-2.7,5.2-8.3,6.9-12.2c2.1-4.6,2.6-9.2,4-14.1c2.4-8.5,4.1-17.8,10.5-24.4
		c5.4-5.7,13.9-7.9,21.5-9.1c8.4-1.3,17.2-0.7,25.3,1.7c3.6,1.1,7.2,2.6,10,5.1c2.1,1.9,3.7,4.2,4.9,6.7c-1.2-2.5-2.8-4.9-4.9-6.7
		c-2.8-2.5-6.4-4-10-5.1c-8.2-2.5-16.9-3-25.3-1.7c-7.5,1.1-16,3.4-21.5,9.1c-6.3,6.6-8,15.9-10.5,24.4c-1.4,4.9-1.9,9.5-4,14.1
		C7.5,53.5,5.7,59,2.3,61.8c-0.3,0.1-0.5,0.3-0.6,0.5l0,0C1.8,62.1,2,61.9,2.3,61.8z"/>
	<path class="st0" d="M21.2,32.8c-0.8,0.3-1.4,0.7-1.8,1.3C19.8,33.5,20.4,33.1,21.2,32.8z"/>
	<path class="st0" d="M45.1,3.2c3.6-0.6,7.3-0.9,11-0.8C52.5,2.3,48.8,2.6,45.1,3.2z"/>
	<path class="st0" d="M2.3,63.5c0.1,0-0.3-0.5-0.6-1C1.6,62.9,1.8,63.3,2.3,63.5z"/>
	<path class="st0" d="M1.7,62.5c0-0.1,0-0.1,0.1-0.2c-0.1-0.1-0.2-0.2-0.2-0.2C1.4,62.1,1.5,62.3,1.7,62.5z"/>
	<path class="st0" d="M4.6,61.8C4.6,61.8,4.6,61.8,4.6,61.8c0.5-0.6,1-1.3,1.4-2C5.6,60.5,5.1,61.2,4.6,61.8z"/>
	<path class="st0" d="M20.1,54c-0.9-4.5-1.5-9.2-1.6-13.8C18.6,44.9,19.3,49.5,20.1,54z"/>
	<path class="st0" d="M21.2,32.8C21.3,32.8,21.3,32.8,21.2,32.8C21.3,32.8,21.3,32.8,21.2,32.8z"/>
	<path class="st0" d="M23.4,58.8c-0.2,0.3-0.6,0.4-0.9,0.5C22.8,59.2,23.1,59.1,23.4,58.8z"/>
	<path class="st0" d="M12,45.7c0.6-1.9,1.2-3.9,1.7-5.9C13.2,41.7,12.7,43.7,12,45.7l-0.3,0.9c-0.5,1.4-0.9,2.8-1.5,4.3
		c0.5-1.4,1-2.9,1.5-4.3L12,45.7z"/>
	<path class="st0" d="M43.8,66.1c3.5,0.2,7,0.1,10.5-0.4c2.2-0.3,5.3-0.9,8.5-2c-3.3,1.1-6.3,1.7-8.5,2
		C50.8,66.2,47.3,66.3,43.8,66.1z"/>
	<path class="st0" d="M22.4,14.3c-1.6,2.1-2.9,4.6-4,7.6c-0.6,1.6-1.1,3.3-1.6,5c0.5-1.7,1-3.4,1.6-5C19.5,18.9,20.8,16.4,22.4,14.3
		z"/>
	<path class="st0" d="M6.4,61.7c0.3,0,0.7,0,1,0c4.3,0,8.7,0.5,12.9,1.1c-4.3-0.6-8.6-1.1-12.9-1.1C7.1,61.7,6.7,61.7,6.4,61.7z"/>
	<path class="st0" d="M72.1,33.3c-1.2,0.4-2.4,0.8-3.6,1.2c0,0,0,0,0,0C69.7,34.1,70.9,33.7,72.1,33.3
		C72.1,33.3,72.1,33.3,72.1,33.3z"/>
	<path class="st0" d="M60.9,8.7C60.9,8.7,60.8,8.7,60.9,8.7C60.8,8.7,60.8,8.7,60.9,8.7C60.8,8.7,60.8,8.7,60.9,8.7z"/>
	<path class="st0" d="M61.3,8.4c-0.1,0-0.2,0.1-0.2,0.1C61.1,8.5,61.2,8.5,61.3,8.4C61.7,8.2,62,7.7,62,7.3
		C62,7.7,61.7,8.2,61.3,8.4z"/>
	<path class="st0" d="M75.5,48.2C75.5,48.2,75.5,48.2,75.5,48.2C75.5,48.2,75.5,48.2,75.5,48.2z"/>
	<path class="st0" d="M69.9,8.9c1.1,5.3,2.2,10.6,3.3,15.9C72,19.6,70.9,14.3,69.9,8.9c0-0.8-0.5-1.2-1.1-1.2
		C69.4,7.7,69.9,8.1,69.9,8.9z"/>
	<path class="st0" d="M60.6,8.9c0.1-0.1,0.1-0.1,0.2-0.2c0,0,0.1-0.1,0.1-0.1c0,0,0,0,0,0c0,0-0.1,0.1-0.1,0.1
		C60.7,8.8,60.7,8.9,60.6,8.9z"/>
	<path class="st0" d="M59,11.1c0.1-0.1,0.1-0.2,0.2-0.4c0,0,0,0,0,0C59.1,10.8,59.1,11,59,11.1z"/>
	<path class="st0" d="M57.8,13.4C57.8,13.4,57.8,13.4,57.8,13.4C57.8,13.4,57.8,13.4,57.8,13.4c0-0.1,0.1-0.2,0.2-0.3
		c0.2-0.4,0.3-0.7,0.5-1.1c-0.2,0.3-0.4,0.7-0.5,1.1C57.9,13.1,57.8,13.3,57.8,13.4z"/>
	<path class="st0" d="M59.9,9.7c0,0-0.1,0.2-0.1,0.1C59.9,9.8,60,9.7,59.9,9.7C59.9,9.7,59.9,9.7,59.9,9.7z"/>
	<path class="st0" d="M68.3,37.4c-0.2,3.5-0.4,6.9-0.6,10.4c-0.1,1.6-2.2,1.9-2.7,0.8c0.5,1.1,2.6,0.8,2.7-0.8
		C67.9,44.4,68.1,40.9,68.3,37.4L68.3,37.4c0.9-0.3,1.7-0.5,2.5-0.8C70,36.9,69.2,37.2,68.3,37.4L68.3,37.4z"/>
	<path class="st0" d="M87.5,33.8c0.7-6.1-0.8-13-4.1-18.8C86.6,20.8,88.2,27.8,87.5,33.8z"/>
	<path class="st0" d="M88.4,23.9c0.6,2.2,1,4.5,1.1,6.8v0C89.4,28.3,89,26.1,88.4,23.9z"/>
	<path class="st0" d="M75.5,48.3c0.4,0.4,1.1,0.4,1.6,0.1C76.6,48.7,75.9,48.7,75.5,48.3z"/>
	<path class="st0" d="M54.5,30.9c-0.2-1.1-0.4-2.2-0.6-3.3C54.1,28.7,54.3,29.8,54.5,30.9z"/>
	<path class="st0" d="M71.8,31.8c-0.8-4-1.7-7.9-2.5-11.9c-0.2,4.3-0.5,8.6-0.7,12.9c0.2-4.3,0.5-8.6,0.7-12.9
		C70.1,23.9,70.9,27.8,71.8,31.8z"/>
	<path class="st0" d="M53.6,18.9c-0.2,1.9-0.2,3.9,0,5.8C53.4,22.7,53.4,20.8,53.6,18.9z"/>
	<path class="st0" d="M58,7.6c0,0.1-0.1,0.1-0.1,0.2c-0.6,0.8-1.2,1.6-1.6,2.4c0,0,0,0,0,0c0.5-0.8,1-1.6,1.6-2.4
		C57.9,7.7,57.9,7.7,58,7.6z"/>
	<path class="st0" d="M57.1,41.1C57.1,41.1,57.1,41.1,57.1,41.1C57.1,41.1,57.1,41.1,57.1,41.1C57.1,41.2,57.1,41.2,57.1,41.1
		c0,0.2,0,0.2,0,0.3C57.2,41.4,57.1,41.3,57.1,41.1C57.1,41.2,57.1,41.2,57.1,41.1z"/>
	<path class="st0" d="M51,59c-0.2,0.4-0.2,0.8,0,1.1C50.8,59.8,50.8,59.3,51,59z"/>
	<path class="st0" d="M54.4,53.3c-0.8,1.5-1.7,3-2.6,4.5c-0.2,0.4-0.5,0.8-0.7,1.1c0.2-0.4,0.5-0.8,0.7-1.1
		C52.7,56.3,53.6,54.8,54.4,53.3z"/>
	<path class="st0" d="M55.6,50.6c0.3-0.8,0.6-1.7,0.9-2.6c0.2-0.7,0.4-1.4,0.5-2.2c-0.1,0.7-0.3,1.5-0.5,2.2
		C56.3,48.9,56,49.7,55.6,50.6c0,0,0,0.1-0.1,0.1c0,0,0,0,0,0C55.6,50.7,55.6,50.6,55.6,50.6z"/>
	<path class="st0" d="M52.1,61c0.5,0.1,1.1-0.1,1.4-0.6C53.1,60.9,52.6,61.1,52.1,61z"/>
	<path class="st0" d="M59.4,48.2c0.3-1.1,0.5-2.3,0.6-3.5c0-0.2,0-0.4,0-0.5c0,0.2,0,0.4,0,0.5C59.9,45.9,59.7,47.1,59.4,48.2z"/>
	<path class="st0" d="M56.5,18.2c0,0.1,0,0.1,0,0.2C56.5,18.3,56.5,18.3,56.5,18.2c0-0.1,0-0.2,0.1-0.4c0.1-0.5,0.2-1,0.3-1.6
		c-0.1,0.5-0.2,1-0.3,1.6C56.5,18,56.5,18.1,56.5,18.2z"/>
	<path class="st0" d="M56.3,22.8c0,0.3,0,0.6,0.1,0.9C56.3,23.4,56.3,23.1,56.3,22.8c0-0.5,0-1,0-1.5C56.3,21.8,56.3,22.3,56.3,22.8
		z"/>
	<path class="st0" d="M60.4,5.8c-0.2,0-0.4,0.1-0.5,0.2c-0.3,0.1-0.5,0.3-0.8,0.5c0.2-0.2,0.5-0.4,0.8-0.5C60,5.9,60.2,5.8,60.4,5.8
		z"/>
	<path class="st0" d="M56.6,26.6c0,0,0,0.1,0,0.1c0.1,0.5,0.1,0.9,0.2,1.4c0,0.2,0.1,0.3,0.1,0.5c0-0.2-0.1-0.3-0.1-0.5
		c-0.1-0.5-0.1-0.9-0.2-1.4C56.6,26.6,56.6,26.6,56.6,26.6c0-0.1,0-0.2,0-0.3c0-0.1,0-0.1,0-0.2c0,0.1,0,0.1,0,0.2
		C56.6,26.4,56.6,26.5,56.6,26.6z"/>
	<path class="st1" d="M21.6,43.3c2-1.4,4.5-4.3,2.6-6.3c0,0-0.1-0.1-0.1-0.1c-1.3-1.2-2-0.9-2.4,0c-0.6,1.5-0.2,4.5-0.2,5.2
		c0,0,0,0.1,0,0.1C21.5,42.5,21.5,42.9,21.6,43.3z"/>
	<path class="st1" d="M71.8,31.8c-0.8-4-1.7-7.9-2.5-11.9c-0.2,4.3-0.5,8.6-0.7,12.9c0,0.5-0.1,1.1-0.1,1.6c1.2-0.4,2.4-0.8,3.6-1.2
		C72,32.8,71.9,32.3,71.8,31.8z"/>
	<path class="st1" d="M83.3,15c-0.7-1.3-1.6-2.6-2.5-3.7c-5.1-6.6-14.7-8.1-21.5-8.7c-1.1-0.1-2.1-0.1-3.2-0.2
		c-3.7-0.1-7.4,0.2-11,0.8c-3.7,0.6-7.4,1.6-10.9,2.9c-3.2,1.2-7.2,3-10.2,6.1c-0.6,0.6-1.2,1.3-1.7,2c-1.6,2.1-2.9,4.6-4,7.6
		c-0.6,1.6-1.1,3.3-1.6,5c-0.7,2.6-1.3,5.2-1.9,7.8c-0.4,1.7-0.8,3.3-1.2,5c-0.5,2-1,4-1.7,5.9l-0.3,0.9c-0.5,1.4-0.9,2.8-1.5,4.3
		C9.2,54,7.8,57.1,6,59.8c-0.5,0.7-0.9,1.3-1.4,2c0.6,0,1.2,0,1.8,0c0.3,0,0.7,0,1,0c4.3,0,8.7,0.5,12.9,1.1
		c2.3,0.3,4.6,0.7,6.9,1.1c5.4,0.9,10.9,1.9,16.5,2.2c3.5,0.2,7,0.1,10.5-0.4c2.2-0.3,5.3-0.9,8.5-2c4.8-1.6,10.2-4.1,14.4-8.3
		c2.5-2.5,4.7-5.6,6.4-9.1c0,0,0-0.1,0.1-0.1c1.7-3.5,3-7.4,3.6-11.4c0.1-0.3,0.1-0.7,0.1-1C88.2,27.8,86.6,20.8,83.3,15z
		 M23.1,45.7c-0.3,0.2-0.7,0.4-1,0.6c-0.1,0-0.1,0.1-0.2,0.1c0.1,1.1,0.3,2.2,0.4,3.3c0.3,2.3,0.8,4.6,1.2,6.8
		c0.1,0.3,0.1,0.7,0.2,1c0.1,0.5,0,1-0.3,1.3c0,0,0,0,0,0c-0.2,0.3-0.6,0.4-0.9,0.5c0,0,0,0,0,0c-0.5,0.1-1.1-0.1-1.3-0.7
		c0-0.1-0.1-0.1-0.1-0.2c-0.3-1.4-0.6-2.9-0.9-4.3c-0.9-4.5-1.5-9.2-1.6-13.8c0-0.5,0-1,0-1.5c0-1.6,0.1-3.4,0.9-4.7
		c0.4-0.6,0.9-1.1,1.8-1.3c0,0,0,0,0.1,0c0,0,0,0,0.1,0c0.2,0,0.3-0.1,0.5-0.1c0.2,0,0.4-0.1,0.6-0.1c2.7-0.1,4.3,2.4,4.7,4.9
		c0.3,1.5,0.1,2.9-0.3,4.1C26.1,43.3,24.8,44.6,23.1,45.7z M32.9,57.7c-0.6,0-1.3-0.3-1.5-1.1c0-0.1,0-0.1,0-0.2
		C30.5,46.3,30,36.1,28.3,26c0-0.1,0-0.2,0-0.3c0-1,1.2-1.4,2.1-0.9c0.3,0.2,0.6,0.5,0.7,0.9c0,0.1,0,0.1,0,0.2
		c1.7,10.1,2.2,20.3,3.1,30.4c0,0.4-0.1,0.7-0.3,0.9C33.7,57.5,33.3,57.7,32.9,57.7z M47.3,52.5c-0.4,0-0.8-0.2-1-0.4
		c-0.3-0.3-0.4-0.6-0.4-1c0,0,0,0,0,0c0-0.1,0-0.1,0-0.2c-0.2-1.8-0.6-3.5-1.1-5.3c-0.4-1.7-0.9-3.3-1.4-4.9
		c-0.4-1.2-0.8-2.4-1.2-3.6c0,2,0.1,4,0.1,6c0.1,3.6,0.2,7.3,0.3,10.9c0,0.4-0.1,0.7-0.4,0.9c-0.3,0.3-0.7,0.5-1.1,0.5
		c-0.4,0-0.8-0.2-1-0.4C40,55,40,54.9,40,54.8c-0.1-0.2-0.2-0.4-0.2-0.6c0-0.1,0-0.1,0-0.2c0-2-0.1-4.1-0.2-6.1
		c-0.1-3.6-0.2-7.3-0.3-10.9c-0.1-3.6-0.2-7.3-0.3-10.9c0-0.1,0-0.3,0.1-0.4c0.2-0.5,0.6-0.9,1.2-1c0.3,0,0.6,0,0.9,0.2
		c0.3,0.2,0.6,0.5,0.7,0.9c0.4,1.9,0.9,3.7,1.4,5.5c0.7,2.4,1.5,4.7,2.3,7c-0.1-2.5-0.1-5.1-0.1-7.6c0-0.3,0-0.6,0-0.8
		c-0.1-4.1-0.1-8.2-0.1-12.3c0-0.8,0.7-1.4,1.4-1.4c0.8,0,1.4,0.7,1.4,1.4c0,2.5,0,4.9,0,7.4c0,4.4,0.1,8.7,0.2,13.1
		s0.2,8.7,0.4,13.1c0,0.2,0,0.4-0.1,0.6C48.4,52.2,47.8,52.5,47.3,52.5z M61.3,8.4c-0.1,0-0.2,0.1-0.2,0.1c0,0-0.1,0-0.1,0.1
		c0,0,0,0,0,0c0,0,0,0,0,0c0,0-0.1,0-0.1,0.1c0,0,0,0,0,0c0,0,0,0,0.1,0c0,0,0,0,0,0c0,0,0,0,0,0c0,0-0.1,0.1-0.1,0.1
		c-0.1,0.1-0.1,0.1-0.2,0.2c0,0,0,0,0,0c-0.1,0.2-0.3,0.3-0.4,0.5C60.1,9.5,60,9.6,60,9.7c0,0-0.1,0.1-0.1,0.1c0,0,0,0,0,0
		c0,0,0.1-0.1,0.1-0.1c-0.1,0-0.2,0.2-0.2,0.3c-0.1,0.1-0.1,0.2-0.2,0.3c-0.1,0.2-0.2,0.3-0.3,0.5c-0.1,0.1-0.1,0.2-0.2,0.4
		c-0.2,0.3-0.4,0.6-0.5,0.9c-0.2,0.3-0.4,0.7-0.5,1.1c-0.1,0.1-0.1,0.2-0.2,0.3c0,0,0,0,0,0c0,0,0,0,0,0c-0.1,0.2-0.1,0.4-0.2,0.5
		c-0.2,0.4-0.3,0.8-0.4,1.2c-0.1,0.4-0.2,0.7-0.3,1.1c-0.1,0.5-0.2,1-0.3,1.6c0,0.1,0,0.2-0.1,0.4c0,0.1,0,0.1,0,0.2
		c0,0.2,0,0.3-0.1,0.5c0,0.4-0.1,0.9-0.1,1.3c0,0.4,0,0.8,0,1.2c0,0.5,0,1,0,1.5c0,0.3,0,0.6,0.1,0.9c0,0.6,0.1,1.2,0.1,1.8
		c0,0.2,0,0.3,0.1,0.5c0,0.1,0,0.1,0,0.2c0,0.1,0,0.2,0,0.3c0,0,0,0.1,0,0.1c0.1,0.5,0.1,0.9,0.2,1.4c0,0.2,0.1,0.3,0.1,0.5
		c0.3,1.7,0.7,3.4,1.2,5.1c0.5,1.8,1.1,3.6,1.5,5.4c0.4,1.7,0.5,3.5,0.4,5.2c0,0.2,0,0.4,0,0.5c-0.1,1.2-0.3,2.3-0.6,3.5
		c-0.2,0.7-0.4,1.4-0.6,2.1c-0.5,1.3-1,2.5-1.6,3.7c-1.1,2.2-2.4,4.3-3.7,6.4c0,0,0,0,0,0c0,0,0,0,0,0c0,0,0,0-0.1,0.1
		c-0.3,0.5-0.9,0.7-1.4,0.6c-0.2,0-0.3-0.1-0.5-0.2c-0.3-0.2-0.5-0.4-0.6-0.7c-0.1-0.4-0.1-0.8,0-1.1c0,0,0-0.1,0-0.1c0,0,0,0,0,0
		c0.2-0.4,0.5-0.8,0.7-1.1c0.9-1.5,1.8-2.9,2.6-4.5c0.1-0.1,0.1-0.3,0.2-0.4c0.2-0.4,0.4-0.8,0.6-1.2c0.1-0.2,0.2-0.4,0.3-0.7
		c0-0.1,0.1-0.2,0.1-0.3c0,0,0-0.1,0.1-0.1c0.3-0.8,0.6-1.7,0.9-2.6c0.2-0.7,0.4-1.4,0.5-2.2c0-0.2,0.1-0.4,0.1-0.5c0,0,0-0.1,0-0.1
		c0,0,0,0,0,0c0-0.1,0-0.2,0-0.3c0-0.2,0-0.4,0.1-0.6c0-0.5,0-0.9,0-1.4c0-0.5,0-0.9-0.1-1.4c0,0,0,0,0,0c0-0.1,0-0.1,0-0.2
		c0,0,0-0.1,0-0.1c0,0,0-0.1,0-0.1c0,0,0,0,0,0c0-0.2-0.1-0.5-0.1-0.7c-0.1-0.3-0.1-0.6-0.2-0.9c-0.1-0.3-0.2-0.7-0.2-1
		c-0.1-0.3-0.1-0.5-0.2-0.8c-0.2-0.6-0.3-1.1-0.5-1.6c-0.2-0.7-0.4-1.3-0.6-2c-0.2-0.6-0.3-1.2-0.5-1.8c-0.1-0.4-0.2-0.9-0.3-1.3
		c-0.2-1.1-0.4-2.2-0.6-3.3c-0.1-0.4-0.1-0.9-0.2-1.3c-0.1-0.5-0.1-1.1-0.2-1.6c-0.2-1.9-0.2-3.9,0-5.8c0.1-1.2,0.3-2.4,0.6-3.6
		c0.4-1.8,1.1-3.5,2.1-5.1c0,0,0,0,0,0s0,0,0,0c0.5-0.8,1-1.6,1.6-2.4c0-0.1,0.1-0.1,0.1-0.2c0.3-0.4,0.7-0.8,1.1-1.1
		c0.2-0.2,0.5-0.4,0.8-0.5c0.2-0.1,0.4-0.1,0.5-0.2c0.5-0.1,1.1,0.2,1.4,0.7C62,6.7,62,7,62,7.3C62,7.7,61.7,8.2,61.3,8.4z
		 M77.1,48.4c-0.5,0.3-1.2,0.3-1.6-0.1c0,0,0,0-0.1-0.1c0,0,0,0,0,0c-0.1-0.1-0.2-0.3-0.2-0.5c-0.9-3.9-1.7-7.8-2.5-11.7
		c-0.6,0.2-1.3,0.4-1.9,0.6c-0.8,0.3-1.6,0.5-2.4,0.8l-0.1,0c-0.2,3.5-0.4,6.9-0.6,10.4c-0.1,1.6-2.2,1.9-2.7,0.8
		c-0.1-0.2-0.1-0.4-0.1-0.6c0.7-13,1.5-25.9,2.2-38.9c-0.2-0.9,0.5-1.4,1.3-1.4c0.1,0,0.3,0,0.4,0c0.6,0.1,1.1,0.5,1.1,1.2
		c1.1,5.3,2.1,10.6,3.3,15.9c1.5,7.3,3.1,14.6,4.7,21.9C78.1,47.5,77.7,48.1,77.1,48.4z"/>
	<path class="st2" d="M27.1,37.5c-0.5-2.5-2-5.1-4.7-4.9c-0.2,0-0.4,0-0.6,0.1c-0.2,0-0.3,0.1-0.5,0.1c0,0,0,0-0.1,0c0,0,0,0-0.1,0
		c-0.8,0.3-1.4,0.7-1.8,1.3c-0.8,1.3-0.9,3.1-0.9,4.7c0,0.5,0,1,0,1.5c0.1,4.6,0.7,9.2,1.6,13.8c0.3,1.5,0.6,2.9,0.9,4.3
		c0,0.1,0,0.2,0.1,0.2c0.2,0.6,0.8,0.8,1.3,0.7c0,0,0,0,0,0c0.3-0.1,0.7-0.2,0.9-0.5c0,0,0,0,0,0c0.3-0.3,0.5-0.8,0.3-1.3
		c-0.1-0.3-0.1-0.7-0.2-1c-0.5-2.3-0.9-4.5-1.2-6.8c-0.2-1.1-0.3-2.2-0.4-3.3c0.1,0,0.1,0,0.2-0.1c0.4-0.2,0.7-0.4,1-0.6
		c1.7-1.1,3-2.4,3.7-4.1C27.2,40.4,27.4,39.1,27.1,37.5z M21.5,42.2C21.5,42.1,21.5,42.1,21.5,42.2c-0.1-0.8-0.4-3.8,0.2-5.3
		c0.3-0.9,1-1.2,2.4,0c0.1,0,0.1,0.1,0.1,0.1c1.9,2-0.6,4.8-2.6,6.3c0,0,0,0,0,0C21.5,42.9,21.5,42.5,21.5,42.2z"/>
	<path class="st2" d="M31.1,25.9c0-0.1,0-0.1,0-0.2c-0.1-0.4-0.4-0.7-0.7-0.9c-0.8-0.4-2-0.1-2.1,0.9c0,0.1,0,0.2,0,0.3
		c1.7,10.1,2.2,20.3,3.1,30.4c0,0.1,0,0.1,0,0.2c0.2,0.8,0.8,1.1,1.5,1.1c0.4,0,0.8-0.2,1-0.5c0.2-0.2,0.3-0.5,0.3-0.9
		C33.3,46.1,32.8,35.9,31.1,25.9z"/>
	<path class="st2" d="M73.2,24.9c-1.1-5.3-2.2-10.6-3.3-15.9c0-0.8-0.5-1.2-1.1-1.2c-0.1,0-0.3,0-0.4,0c-0.8,0-1.5,0.5-1.3,1.4
		c-0.7,13-1.5,25.9-2.2,38.9c0,0.2,0,0.4,0.1,0.6c0.5,1.1,2.6,0.8,2.7-0.8c0.2-3.5,0.4-6.9,0.6-10.4l0.1,0c0.8-0.3,1.6-0.5,2.4-0.8
		c0.6-0.2,1.3-0.4,1.9-0.6c0.8,3.9,1.7,7.8,2.5,11.7c0,0.2,0.1,0.4,0.2,0.5c0,0,0,0,0,0c0,0,0,0,0.1,0.1c0.4,0.4,1.1,0.4,1.6,0.1
		c0.5-0.3,0.9-0.9,0.8-1.7C76.3,39.5,74.7,32.2,73.2,24.9z M68.5,34.4c0-0.5,0.1-1.1,0.1-1.6c0.2-4.3,0.5-8.6,0.7-12.9
		c0.8,4,1.7,7.9,2.5,11.9c0.1,0.5,0.2,1,0.3,1.5c0,0,0,0,0,0C70.9,33.7,69.7,34.1,68.5,34.4C68.5,34.4,68.5,34.4,68.5,34.4z"/>
	<path class="st1" d="M86.5,18.2c-0.4-0.9-0.7-1.7-1.1-2.6c-1.2-2.5-2.8-4.9-4.9-6.7c-2.8-2.5-6.4-4-10-5.1
		c-8.2-2.5-16.9-3-25.3-1.7c-7.5,1.1-16,3.4-21.5,9.1c-6.3,6.6-8,15.9-10.5,24.4c-1.4,4.9-1.9,9.5-4,14.1C7.5,53.5,5.7,59,2.3,61.8
		c-0.3,0.1-0.5,0.3-0.6,0.5l0,0c0.4,0.4,1.2,1.2,1.2,1.2c16.6-1,31,5.5,47.6,4.7c8.2-0.4,16.4-3.9,23.3-8.5c3.7-2.5,6.6-6,8.8-9.9
		c1.6-2.8,2.9-5.9,4-8.9c0.7-1.9,1.5-3.5,2-5.1c0.6-1.6,0.9-3.2,0.8-5.2l0,0c-0.1-2.3-0.5-4.6-1.1-6.8C87.9,21.9,87.2,20,86.5,18.2z
		 M87.5,33.8c0,0.3-0.1,0.7-0.1,1c-0.6,4-1.9,7.9-3.6,11.4c0,0,0,0.1-0.1,0.1c-1.7,3.5-3.9,6.6-6.4,9.1c-4.2,4.2-9.6,6.7-14.4,8.3
		c-3.3,1.1-6.3,1.7-8.5,2c-3.5,0.5-7,0.6-10.5,0.4c-5.6-0.3-11.1-1.2-16.5-2.2c-2.3-0.4-4.6-0.8-6.9-1.1c-4.3-0.6-8.6-1.1-12.9-1.1
		c-0.3,0-0.7,0-1,0c-0.6,0-1.2,0-1.8,0c0,0,0,0,0,0c0.5-0.6,1-1.3,1.4-2c1.8-2.7,3.1-5.8,4.2-8.9c0.5-1.4,1-2.9,1.5-4.3l0.3-0.9
		c0.6-1.9,1.2-3.9,1.7-5.9c0.4-1.7,0.8-3.4,1.2-5c0.6-2.6,1.2-5.2,1.9-7.8c0.5-1.7,1-3.4,1.6-5c1.1-3,2.4-5.5,4-7.6
		c0.5-0.7,1.1-1.4,1.7-2c3-3.1,7-4.9,10.2-6.1c3.5-1.3,7.1-2.3,10.9-2.9c3.6-0.6,7.3-0.9,11-0.8c1.1,0,2.1,0.1,3.2,0.2
		c6.8,0.5,16.4,2,21.5,8.7c0.9,1.2,1.7,2.4,2.5,3.7C86.6,20.8,88.2,27.8,87.5,33.8z"/>
	<path class="st2" d="M61.8,6.5c-0.3-0.5-0.9-0.7-1.4-0.7c-0.2,0-0.4,0.1-0.5,0.2c-0.3,0.1-0.5,0.3-0.8,0.5
		c-0.4,0.3-0.8,0.7-1.1,1.1c0,0.1-0.1,0.1-0.1,0.2c-0.6,0.8-1.2,1.6-1.6,2.4c0,0,0,0,0,0c-0.9,1.6-1.6,3.3-2.1,5.1
		c-0.3,1.2-0.5,2.4-0.6,3.6c-0.2,1.9-0.2,3.9,0,5.8c0,0.5,0.1,1.1,0.2,1.6c0.1,0.4,0.1,0.9,0.2,1.3c0.2,1.1,0.4,2.2,0.6,3.3
		c0.1,0.4,0.2,0.9,0.3,1.3c0.1,0.6,0.3,1.2,0.5,1.8c0.2,0.7,0.4,1.3,0.6,2c0.2,0.5,0.3,1.1,0.5,1.6c0.1,0.3,0.1,0.5,0.2,0.8
		c0.1,0.3,0.2,0.6,0.2,1c0.1,0.3,0.1,0.6,0.2,0.9c0,0.2,0.1,0.5,0.1,0.7c0,0,0,0,0,0c0,0,0,0,0,0.1c0,0,0,0.1,0,0.1
		c0,0.1,0,0.1,0,0.2c0,0,0,0,0,0c0,0.5,0.1,0.9,0.1,1.4c0,0.5,0,0.9,0,1.4c0,0.2,0,0.4-0.1,0.6c0,0.1,0,0.2,0,0.3c0,0,0,0,0,0
		c0,0,0,0.1,0,0.1c0,0.2-0.1,0.4-0.1,0.5c-0.1,0.7-0.3,1.5-0.5,2.2c-0.3,0.9-0.6,1.7-0.9,2.6c0,0,0,0.1,0,0.1c0,0,0,0,0,0
		c0,0.1-0.1,0.2-0.1,0.3c-0.1,0.2-0.2,0.4-0.3,0.7c-0.2,0.4-0.4,0.8-0.6,1.2c-0.1,0.1-0.1,0.3-0.2,0.4c-0.8,1.5-1.7,3-2.6,4.5
		c-0.2,0.4-0.5,0.8-0.7,1.1c0,0,0,0,0,0c0,0,0,0.1,0,0.1c-0.2,0.4-0.2,0.8,0,1.1c0.1,0.3,0.3,0.6,0.6,0.7c0.2,0.1,0.3,0.1,0.5,0.2
		c0.5,0.1,1.1-0.1,1.4-0.6c0,0,0,0,0.1-0.1c0,0,0,0,0,0c1.3-2.1,2.6-4.2,3.7-6.4c0.6-1.2,1.1-2.4,1.6-3.7c0.2-0.7,0.5-1.4,0.6-2.1
		c0.3-1.1,0.5-2.3,0.6-3.5c0-0.2,0-0.4,0-0.5c0.1-1.8-0.1-3.5-0.4-5.2c-0.4-1.8-1-3.6-1.5-5.4c-0.5-1.7-0.9-3.4-1.2-5.1
		c0-0.2-0.1-0.3-0.1-0.5c-0.1-0.5-0.1-0.9-0.2-1.4c0,0,0-0.1,0-0.1c0-0.1,0-0.2,0-0.3c0-0.1,0-0.1,0-0.2c0-0.2,0-0.3-0.1-0.5
		c-0.1-0.6-0.1-1.2-0.1-1.8c0-0.3-0.1-0.6-0.1-0.9c0-0.5,0-1,0-1.5c0-0.4,0-0.8,0-1.2c0-0.4,0.1-0.9,0.1-1.3c0-0.2,0-0.3,0.1-0.5
		c0-0.1,0-0.1,0-0.2c0-0.1,0-0.2,0.1-0.4c0.1-0.5,0.2-1,0.3-1.6c0.1-0.4,0.2-0.7,0.3-1.1c0.1-0.4,0.3-0.8,0.4-1.2
		c0.1-0.2,0.1-0.4,0.2-0.5c0,0,0,0,0,0c0,0,0,0,0,0c0-0.1,0.1-0.2,0.2-0.3c0.2-0.4,0.3-0.7,0.5-1.1c0.2-0.3,0.3-0.6,0.5-0.9
		c0.1-0.1,0.1-0.2,0.2-0.4c0,0,0,0,0,0c0.1-0.2,0.2-0.3,0.3-0.5c0.1-0.1,0.1-0.2,0.2-0.3c0.1-0.1,0.1-0.3,0.2-0.3c0,0,0,0,0,0
		c0,0-0.1,0.1-0.1,0.1c0,0,0,0,0,0c0,0,0.1-0.1,0.1-0.1c0.1-0.1,0.1-0.2,0.2-0.2c0.1-0.2,0.3-0.3,0.4-0.5c0,0,0,0,0,0
		c0.1-0.1,0.1-0.1,0.2-0.2c0,0,0.1-0.1,0.1-0.1c0,0,0,0,0,0c0,0,0,0-0.1,0c0,0,0,0-0.1,0c0,0,0,0,0.1,0c0,0,0.1,0,0.1-0.1
		c0,0,0,0,0,0c0,0,0,0,0,0c0,0,0.1,0,0.1-0.1c0.1-0.1,0.2-0.1,0.2-0.1C61.7,8.2,62,7.7,62,7.3C62,7,62,6.7,61.8,6.5z"/>
	<path class="st3" d="M60.9,8.7C60.9,8.6,60.9,8.6,60.9,8.7"/>
	<line class="st3" x1="61" y1="8.6" x2="60.9" y2="8.6"/>
	<path class="st2" d="M48.3,38c-0.1-4.4-0.2-8.7-0.2-13.1c0-2.5,0-4.9,0-7.4c0-0.7-0.7-1.5-1.4-1.4s-1.4,0.6-1.4,1.4
		c0,4.1,0,8.2,0.1,12.3c0,0.3,0,0.6,0,0.8c0,2.5,0.1,5.1,0.1,7.6c0,0,0,0,0,0c-0.8-2.3-1.6-4.7-2.3-7c-0.5-1.8-1-3.7-1.4-5.5
		c-0.1-0.3-0.4-0.7-0.7-0.9c-0.3-0.2-0.6-0.2-0.9-0.2c-0.5,0.1-1,0.5-1.2,1c0,0.1-0.1,0.3-0.1,0.4c0.1,3.6,0.2,7.3,0.3,10.9
		c0.1,3.6,0.2,7.3,0.3,10.9c0.1,2,0.1,4.1,0.2,6.1c0,0.1,0,0.1,0,0.2c0,0.2,0.1,0.4,0.2,0.6c0,0.1,0.1,0.2,0.1,0.2
		c0.2,0.2,0.7,0.4,1,0.4c0.4,0,0.8-0.2,1.1-0.5c0.2-0.2,0.4-0.6,0.4-0.9c-0.1-3.6-0.2-7.3-0.3-10.9c0-2-0.1-4-0.1-6c0,0,0,0,0,0
		c0.4,1.2,0.8,2.4,1.2,3.6c0.5,1.6,1,3.3,1.4,4.9c0.5,1.7,0.8,3.5,1.1,5.3c0,0.1,0,0.1,0,0.2c0,0,0,0,0,0c0,0.4,0.1,0.7,0.4,1
		c0.2,0.2,0.7,0.4,1,0.4c0.6,0,1.1-0.4,1.3-0.9c0.1-0.2,0.1-0.4,0.1-0.6C48.6,46.7,48.4,42.4,48.3,38z"/>
	<g>
		<path class="st0" d="M82.7,49.8c1.6-2.8,2.9-5.9,4-8.9c0.7-1.9,1.5-3.5,2-5.1c-0.6,1.6-1.3,3.1-2,5.1C85.6,43.9,84.3,47,82.7,49.8
			z"/>
		<path class="st0" d="M83.7,46.2c1.7-3.5,3-7.4,3.6-11.4c0.1-0.3,0.1-0.7,0.1-1c0.7-6.1-0.8-13-4.1-18.8c-0.7-1.3-1.6-2.6-2.5-3.7
			c-5.1-6.6-14.7-8.1-21.5-8.7c-1.1-0.1-2.1-0.1-3.2-0.2c-3.7-0.1-7.4,0.2-11,0.8c-3.7,0.6-7.4,1.6-10.9,2.9
			c-3.2,1.2-7.2,3-10.2,6.1c-0.6,0.6-1.2,1.3-1.7,2c-1.6,2.1-2.9,4.6-4,7.6c-0.6,1.6-1.1,3.3-1.6,5c-0.7,2.6-1.3,5.2-1.9,7.8
			c-0.4,1.7-0.8,3.3-1.2,5c-0.5,2-1,4-1.7,5.9l-0.3,0.9c-0.5,1.4-0.9,2.8-1.5,4.3C9.2,54,7.8,57.1,6,59.8c-0.5,0.7-0.9,1.3-1.4,2
			c0,0,0,0,0,0c0.6,0,1.2,0,1.8,0c0.3,0,0.7,0,1,0c4.3,0,8.7,0.5,12.9,1.1c2.3,0.3,4.6,0.7,6.9,1.1c5.4,0.9,10.9,1.9,16.5,2.2
			c3.5,0.2,7,0.1,10.5-0.4c2.2-0.3,5.3-0.9,8.5-2c4.8-1.6,10.2-4.1,14.4-8.3c2.5-2.5,4.7-5.6,6.4-9.1C83.7,46.3,83.7,46.3,83.7,46.2
			z"/>
		<path class="st0" d="M9.2,49.6c2.1-4.6,2.6-9.2,4-14.1c2.4-8.5,4.1-17.8,10.5-24.4c5.4-5.7,13.9-7.9,21.5-9.1
			c8.4-1.3,17.2-0.7,25.3,1.7c3.6,1.1,7.2,2.6,10,5.1c2.1,1.9,3.7,4.2,4.9,6.7c-1.2-2.5-2.8-4.9-4.9-6.7c-2.8-2.5-6.4-4-10-5.1
			c-8.2-2.5-16.9-3-25.3-1.7c-7.5,1.1-16,3.4-21.5,9.1c-6.3,6.6-8,15.9-10.5,24.4C11.8,40.4,11.3,45,9.2,49.6
			c-1.7,3.7-3.3,8.8-6.4,11.7l0,0C5.9,58.4,7.6,53.3,9.2,49.6z"/>
		<path class="st0" d="M89.5,30.6L89.5,30.6c0-0.6-0.1-1.1-0.1-1.7C89.5,29.5,89.5,30.1,89.5,30.6z"/>
		<path class="st4" d="M89.7,27.5c-0.5-3.8-1.7-7.7-3.7-12c-1.9-4-4-6.9-6.5-8.9C76.9,4.5,73.6,3,69.2,1.9c-8.2-2.1-17-2.3-25.5-0.7
			C33.5,3.1,26.4,6.4,22,11.3c-5.3,5.9-7.1,13.8-8.8,21.3c-0.3,1.3-0.6,2.7-0.9,4c-1.2,4.9-2.7,9.8-4.6,14.5l-0.2,0.5
			c-1.5,3.8-3.1,7.7-6.2,10.5c-0.5,0.2-0.8,0.6-0.7,1.2c0,0.5,0.4,0.9,0.8,1c0.2,0.1,0.4,0.1,0.5,0.1c0.1,0,0.2,0,0.3-0.1
			c8.4-0.9,16.9,0.6,25,2c6.5,1.1,13.1,2.3,19.8,2.3c1.7,0,3.4-0.1,5.1-0.2c9.3-0.9,17.8-4.1,24.1-8.9c5.5-4.2,9.7-10.8,12.2-19.1
			C89.8,35.6,90.2,31.4,89.7,27.5z M6.5,55.8c1-2.1,1.8-4.3,2.7-6.1c2.1-4.6,2.6-9.2,4-14.1c2.4-8.5,4.1-17.8,10.5-24.4
			c5.4-5.7,13.9-7.9,21.5-9.1c8.4-1.3,17.2-0.7,25.3,1.7c3.6,1.1,7.2,2.6,10,5.1c2.1,1.9,3.7,4.2,4.9,6.7c-1.2-2.5-2.8-4.9-4.9-6.7
			c-2.8-2.5-6.4-4-10-5.1c-8.2-2.5-16.9-3-25.3-1.7c-7.5,1.1-16,3.4-21.5,9.1c-6.3,6.6-8,15.9-10.5,24.4c-1.4,4.9-1.9,9.5-4,14.1
			C8.4,51.5,7.6,53.7,6.5,55.8c-1,2.1-2.2,4.1-3.7,5.5l0,0C4.4,59.9,5.5,57.9,6.5,55.8z M77.2,55.4c-4.2,4.2-9.6,6.7-14.4,8.3
			c-3.3,1.1-6.3,1.7-8.5,2c-3.5,0.5-7,0.6-10.5,0.4c-5.6-0.3-11.1-1.2-16.5-2.2c-2.3-0.4-4.6-0.8-6.9-1.1c-4.3-0.6-8.6-1.1-12.9-1.1
			c-0.3,0-0.7,0-1,0c-0.6,0-1.2,0-1.8,0c0,0,0,0,0,0c0.5-0.6,1-1.3,1.4-2c1.8-2.7,3.1-5.8,4.2-8.9c0.5-1.4,1-2.9,1.5-4.3l0.3-0.9
			c0.6-1.9,1.2-3.9,1.7-5.9c0.4-1.7,0.8-3.4,1.2-5c0.6-2.6,1.2-5.2,1.9-7.8c0.5-1.7,1-3.4,1.6-5c1.1-3,2.4-5.5,4-7.6
			c0.5-0.7,1.1-1.4,1.7-2c3-3.1,7-4.9,10.2-6.1c3.5-1.3,7.1-2.3,10.9-2.9c3.6-0.6,7.3-0.9,11-0.8c1.1,0,2.1,0.1,3.2,0.2
			c6.8,0.5,16.4,2,21.5,8.7c0.9,1.2,1.7,2.4,2.5,3.7c3.3,5.8,4.8,12.8,4.1,18.8c0,0.3-0.1,0.7-0.1,1c-0.6,4-1.9,7.9-3.6,11.4
			c0,0,0,0.1-0.1,0.1C81.9,49.8,79.8,52.9,77.2,55.4z M86.7,40.9c-1.1,3-2.4,6.1-4,8.9C84.3,47,85.6,43.9,86.7,40.9
			c0.7-1.9,1.5-3.5,2-5.1C88.1,37.5,87.4,39,86.7,40.9z M89.5,30.6c0-0.6-0.1-1.1-0.1-1.7C89.5,29.5,89.5,30.1,89.5,30.6L89.5,30.6z
			"/>
	</g>
</g>
</svg>
