<?xml version="1.0" encoding="utf-8"?>
<!-- Generator: Adobe Illustrator 26.3.1, SVG Export Plug-In . SVG Version: 6.00 Build 0)  -->
<svg version="1.1" id="Calque_1" xmlns="http://www.w3.org/2000/svg" xmlns:xlink="http://www.w3.org/1999/xlink" x="0px" y="0px"
	 viewBox="0 0 923.1 178.7" style="enable-background:new 0 0 923.1 178.7;" xml:space="preserve">
<style type="text/css">
	.st0{fill:#1877F2;}
</style>
<path class="st0" d="M58.5,175.9H23.7V89.2H0V61h23.7V40.9C23.7,17.1,34.2,0,68.9,0c7.3,0,18.9,1.5,18.9,1.5v26.2H75.6
	c-12.3,0-17.1,3.7-17.1,14.1V61h28.8l-2.6,28.2H58.5L58.5,175.9z M138.3,58.7c-0.5,0-1,0-1.5,0c-32.3,0-47,24.3-47,58.7
	c0,43.4,19.1,60.7,47.3,60.7c16.1,0,26.7-6.8,33.1-19.4v17.1h33.1V61h-33.1v17.7C164.8,67.3,154,58.8,138.3,58.7z M146.7,85.9
	c13.5,0,21.7,9.4,21.7,25.5l0,16.4c0,10.8-6.7,23.5-21.7,23.5c-23,0-22.4-24.9-22.4-33.2C124.3,90.2,136.5,85.9,146.7,85.9
	L146.7,85.9z M216.5,118.5c0-14-0.7-59.7,58.9-59.7c23.9,0,33.9,7.6,33.9,7.6l-8,24.9c0,0-10-5.5-23-5.5c-16.6,0-27.2,9.6-27.2,26.6
	l0,12.2c0,16.3,10.2,27.2,27.3,27.2c11.8,0,22.7-5.5,22.7-5.5l8,24.4c0,0-9.1,7.6-33.5,7.6C218.9,178.2,216.5,137.2,216.5,118.5
	L216.5,118.5z M503.3,58.7c32.3,0,47.2,24.3,47.2,58.7c0,43.4-19.1,60.7-47.3,60.7c-16.1,0-28-6.8-34.4-19.4v17.1l-32.7,0V3.5
	l34.7-3v76.6C475.9,63.7,492.3,58.7,503.3,58.7L503.3,58.7z M493.5,85.9c-13.5,0-22.7,9.4-22.7,25.5l0,16.4
	c0,10.8,6.3,23.5,22.7,23.5c23,0,22.4-24.9,22.4-33.2C516,90.2,503.7,85.9,493.5,85.9z M369.5,58.8c-36.6,0-55.9,19.9-55.9,55.4v6.6
	c0,46,27.1,57.8,59.5,57.8c31.4,0,45.7-8.8,45.7-8.8l-6.5-23.4c0,0-16.7,7.1-35,7.1c-18.9,0-27.1-4.8-29.2-23h73.4v-18.8
	C421.4,73.3,399.8,58.8,369.5,58.8L369.5,58.8z M370.3,82.3c12.7,0,20.9,7.8,20.4,25.8h-42.7C348.8,89.1,357.7,82.3,370.3,82.3
	L370.3,82.3z M619.7,58.7c-37.6,0-57.3,21.2-57.3,59.1c0,52.1,34.1,60.4,57.4,60.4c34.1,0,56.8-18.4,56.8-60
	C676.6,75,651,58.7,619.7,58.7z M619.2,86c16.5,0,23.1,12.4,23.1,26.4v12.1c0,17-9.2,26.9-23.1,26.9c-13.1,0-22.2-9.2-22.2-26.9
	v-12.1C596.9,93.5,607.8,86,619.2,86z M745.7,58.7c-37.6,0-57.3,21.2-57.3,59.1c0,52.1,34.1,60.4,57.4,60.4
	c34.1,0,56.8-18.4,56.8-60C802.6,75,777,58.7,745.7,58.7z M745.2,86c16.5,0,23.1,12.4,23.1,26.4v12.1c0,17-9.2,26.9-23.1,26.9
	c-13.1,0-22.2-9.2-22.2-26.9v-12.1C722.9,93.5,733.8,86,745.2,86z M815.7,175.9V3.5l34.8-3V116L885,61h36.7l-36,57l37.4,57.9h-36.8
	l-35.8-56.2v56.2L815.7,175.9z"/>
</svg>
